<svg width="1376" height="426" viewBox="0 0 1376 426" fill="none" xmlns="http://www.w3.org/2000/svg">
<g clip-path="url(#clip0_5270_142407)">
<rect width="1376" height="426" fill="#ecedfd"/>
<path d="M45.297 -101.085L-34.0859 53.6572L120.656 133.04L200.039 -21.7017L45.297 -101.085Z" fill="#00CB7D"/>
<path d="M271.494 334.229C206.665 300.971 127.122 326.575 93.8643 391.403C60.6069 456.232 86.2099 535.776 151.039 569.033C215.868 602.291 295.411 576.688 328.669 511.859C361.926 447.03 336.323 367.486 271.494 334.229ZM186.118 500.654C159.029 486.757 148.347 453.571 162.244 426.482C176.14 399.393 209.375 388.736 236.415 402.608C263.456 416.48 274.186 449.691 260.289 476.78C246.393 503.869 213.207 514.551 186.118 500.654V500.654Z" fill="#FF286D"/>
<path d="M1085.42 -113.201C1128.25 -55.0665 1115.83 26.8044 1057.69 69.6266C999.56 112.449 917.689 100.032 874.867 41.8975L1085.42 -113.201Z" fill="#FCE264"/>
<path d="M1366.03 301.047L1415.44 418.615C1433.32 461.164 1413.32 510.151 1370.77 528.032L1253.2 577.441C1210.65 595.322 1161.67 575.328 1143.79 532.779L1094.38 415.211C1076.5 372.662 1096.49 323.67 1139.04 305.788L1256.61 256.379C1299.15 238.498 1348.15 258.498 1366.03 301.047Z" fill="#007BF6"/> 
</g>
<defs>
<clipPath id="clip0_5270_142407">
<rect width="1376" height="426" fill="white"/>
</clipPath>
</defs>
</svg>
